<svg width="129" height="29" viewBox="0 0 129 29" fill="none" xmlns="http://www.w3.org/2000/svg">
<path d="M54.368 9.536C54.3093 9.65333 54.24 9.736 54.16 9.784C54.0853 9.832 53.9947 9.856 53.888 9.856C53.7813 9.856 53.6613 9.816 53.528 9.736C53.3947 9.65067 53.2373 9.55733 53.056 9.456C52.8747 9.35467 52.6613 9.264 52.416 9.184C52.176 9.09867 51.8907 9.056 51.56 9.056C51.2613 9.056 51 9.09333 50.776 9.168C50.5573 9.23733 50.3707 9.336 50.216 9.464C50.0667 9.592 49.9547 9.74667 49.88 9.928C49.8053 10.104 49.768 10.2987 49.768 10.512C49.768 10.784 49.8427 11.0107 49.992 11.192C50.1467 11.3733 50.3493 11.528 50.6 11.656C50.8507 11.784 51.136 11.8987 51.456 12C51.776 12.1013 52.1013 12.2107 52.432 12.328C52.768 12.44 53.096 12.5733 53.416 12.728C53.736 12.8773 54.0213 13.0693 54.272 13.304C54.5227 13.5333 54.7227 13.816 54.872 14.152C55.0267 14.488 55.104 14.896 55.104 15.376C55.104 15.8987 55.0133 16.3893 54.832 16.848C54.656 17.3013 54.3947 17.6987 54.048 18.04C53.7067 18.376 53.288 18.6427 52.792 18.84C52.296 19.032 51.728 19.128 51.088 19.128C50.72 19.128 50.3573 19.0907 50 19.016C49.6427 18.9467 49.2987 18.8453 48.968 18.712C48.6427 18.5787 48.336 18.4187 48.048 18.232C47.7653 18.0453 47.512 17.8373 47.288 17.608L47.912 16.576C47.9707 16.5013 48.04 16.44 48.12 16.392C48.2053 16.3387 48.2987 16.312 48.4 16.312C48.5333 16.312 48.6773 16.368 48.832 16.48C48.9867 16.5867 49.168 16.7067 49.376 16.84C49.5893 16.9733 49.8373 17.096 50.12 17.208C50.408 17.3147 50.752 17.368 51.152 17.368C51.7653 17.368 52.24 17.224 52.576 16.936C52.912 16.6427 53.08 16.224 53.08 15.68C53.08 15.376 53.0027 15.128 52.848 14.936C52.6987 14.744 52.4987 14.584 52.248 14.456C51.9973 14.3227 51.712 14.2107 51.392 14.12C51.072 14.0293 50.7467 13.9307 50.416 13.824C50.0853 13.7173 49.76 13.5893 49.44 13.44C49.12 13.2907 48.8347 13.096 48.584 12.856C48.3333 12.616 48.1307 12.3173 47.976 11.96C47.8267 11.5973 47.752 11.152 47.752 10.624C47.752 10.2027 47.8347 9.792 48 9.392C48.1707 8.992 48.416 8.63733 48.736 8.328C49.0613 8.01867 49.4587 7.77067 49.928 7.584C50.3973 7.39733 50.9333 7.304 51.536 7.304C52.2187 7.304 52.848 7.41067 53.424 7.624C54 7.83733 54.4907 8.136 54.896 8.52L54.368 9.536ZM60.3461 10.664C60.8635 10.664 61.3381 10.7467 61.7701 10.912C62.2075 11.0773 62.5835 11.32 62.8981 11.64C63.2128 11.9547 63.4581 12.344 63.6341 12.808C63.8101 13.2667 63.8981 13.792 63.8981 14.384C63.8981 14.5333 63.8901 14.6587 63.8741 14.76C63.8635 14.856 63.8395 14.9333 63.8021 14.992C63.7701 15.0453 63.7248 15.0853 63.6661 15.112C63.6075 15.1333 63.5328 15.144 63.4421 15.144H58.3701C58.4288 15.9867 58.6555 16.6053 59.0501 17C59.4448 17.3947 59.9675 17.592 60.6181 17.592C60.9381 17.592 61.2128 17.5547 61.4421 17.48C61.6768 17.4053 61.8795 17.3227 62.0501 17.232C62.2261 17.1413 62.3781 17.0587 62.5061 16.984C62.6395 16.9093 62.7675 16.872 62.8901 16.872C62.9701 16.872 63.0395 16.888 63.0981 16.92C63.1568 16.952 63.2075 16.9973 63.2501 17.056L63.8261 17.776C63.6075 18.032 63.3621 18.248 63.0901 18.424C62.8181 18.5947 62.5328 18.7333 62.2341 18.84C61.9408 18.9413 61.6395 19.0133 61.3301 19.056C61.0261 19.0987 60.7301 19.12 60.4421 19.12C59.8715 19.12 59.3408 19.0267 58.8501 18.84C58.3595 18.648 57.9328 18.368 57.5701 18C57.2075 17.6267 56.9221 17.168 56.7141 16.624C56.5061 16.0747 56.4021 15.44 56.4021 14.72C56.4021 14.16 56.4928 13.6347 56.6741 13.144C56.8555 12.648 57.1141 12.2187 57.4501 11.856C57.7915 11.488 58.2048 11.1973 58.6901 10.984C59.1808 10.7707 59.7328 10.664 60.3461 10.664ZM60.3861 12.08C59.8101 12.08 59.3595 12.2427 59.0341 12.568C58.7088 12.8933 58.5008 13.3547 58.4101 13.952H62.1221C62.1221 13.696 62.0875 13.456 62.0181 13.232C61.9488 13.0027 61.8421 12.8027 61.6981 12.632C61.5541 12.4613 61.3728 12.328 61.1541 12.232C60.9355 12.1307 60.6795 12.08 60.3861 12.08ZM69.213 10.664C69.7303 10.664 70.205 10.7467 70.637 10.912C71.0743 11.0773 71.4503 11.32 71.765 11.64C72.0797 11.9547 72.325 12.344 72.501 12.808C72.677 13.2667 72.765 13.792 72.765 14.384C72.765 14.5333 72.757 14.6587 72.741 14.76C72.7303 14.856 72.7063 14.9333 72.669 14.992C72.637 15.0453 72.5917 15.0853 72.533 15.112C72.4743 15.1333 72.3997 15.144 72.309 15.144H67.237C67.2957 15.9867 67.5223 16.6053 67.917 17C68.3117 17.3947 68.8343 17.592 69.485 17.592C69.805 17.592 70.0797 17.5547 70.309 17.48C70.5437 17.4053 70.7463 17.3227 70.917 17.232C71.093 17.1413 71.245 17.0587 71.373 16.984C71.5063 16.9093 71.6343 16.872 71.757 16.872C71.837 16.872 71.9063 16.888 71.965 16.92C72.0237 16.952 72.0743 16.9973 72.117 17.056L72.693 17.776C72.4743 18.032 72.229 18.248 71.957 18.424C71.685 18.5947 71.3997 18.7333 71.101 18.84C70.8077 18.9413 70.5063 19.0133 70.197 19.056C69.893 19.0987 69.597 19.12 69.309 19.12C68.7383 19.12 68.2077 19.0267 67.717 18.84C67.2263 18.648 66.7997 18.368 66.437 18C66.0743 17.6267 65.789 17.168 65.581 16.624C65.373 16.0747 65.269 15.44 65.269 14.72C65.269 14.16 65.3597 13.6347 65.541 13.144C65.7223 12.648 65.981 12.2187 66.317 11.856C66.6583 11.488 67.0717 11.1973 67.557 10.984C68.0477 10.7707 68.5997 10.664 69.213 10.664ZM69.253 12.08C68.677 12.08 68.2263 12.2427 67.901 12.568C67.5757 12.8933 67.3677 13.3547 67.277 13.952H70.989C70.989 13.696 70.9543 13.456 70.885 13.232C70.8157 13.0027 70.709 12.8027 70.565 12.632C70.421 12.4613 70.2397 12.328 70.021 12.232C69.8023 12.1307 69.5463 12.08 69.253 12.08ZM77.0776 7.432H78.8136C79.0003 7.432 79.1523 7.47733 79.2696 7.568C79.387 7.65867 79.475 7.776 79.5336 7.92L82.2536 14.976C82.3443 15.2053 82.4296 15.4587 82.5096 15.736C82.595 16.008 82.675 16.296 82.7496 16.6C82.8723 15.9867 83.0243 15.4453 83.2056 14.976L85.9176 7.92C85.9656 7.79733 86.051 7.68533 86.1736 7.584C86.2963 7.48267 86.4483 7.432 86.6296 7.432H88.3656L83.6936 19H81.7496L77.0776 7.432ZM91.885 10.792V19H89.909V10.792H91.885ZM92.181 8.4C92.181 8.57067 92.1463 8.73067 92.077 8.88C92.0077 9.02933 91.9143 9.16 91.797 9.272C91.685 9.384 91.5517 9.47467 91.397 9.544C91.2423 9.608 91.077 9.64 90.901 9.64C90.7303 9.64 90.5677 9.608 90.413 9.544C90.2637 9.47467 90.133 9.384 90.021 9.272C89.909 9.16 89.8183 9.02933 89.749 8.88C89.685 8.73067 89.653 8.57067 89.653 8.4C89.653 8.224 89.685 8.05867 89.749 7.904C89.8183 7.74933 89.909 7.616 90.021 7.504C90.133 7.392 90.2637 7.304 90.413 7.24C90.5677 7.17067 90.7303 7.136 90.901 7.136C91.077 7.136 91.2423 7.17067 91.397 7.24C91.5517 7.304 91.685 7.392 91.797 7.504C91.9143 7.616 92.0077 7.74933 92.077 7.904C92.1463 8.05867 92.181 8.224 92.181 8.4ZM100.221 19C99.9647 19 99.7967 18.88 99.7167 18.64L99.5567 17.848C99.3861 18.04 99.2074 18.2133 99.0207 18.368C98.8341 18.5227 98.6314 18.656 98.4127 18.768C98.1994 18.88 97.9674 18.9653 97.7167 19.024C97.4714 19.088 97.2047 19.12 96.9167 19.12C96.4687 19.12 96.0581 19.0267 95.6847 18.84C95.3114 18.6533 94.9887 18.384 94.7167 18.032C94.4501 17.6747 94.2421 17.2347 94.0927 16.712C93.9487 16.1893 93.8767 15.592 93.8767 14.92C93.8767 14.312 93.9594 13.7467 94.1247 13.224C94.2901 12.7013 94.5274 12.248 94.8367 11.864C95.1461 11.48 95.5167 11.1813 95.9487 10.968C96.3807 10.7493 96.8661 10.64 97.4047 10.64C97.8634 10.64 98.2554 10.7147 98.5807 10.864C98.9061 11.008 99.1967 11.2027 99.4527 11.448V7.112H101.429V19H100.221ZM97.5887 17.552C97.9994 17.552 98.3487 17.4667 98.6367 17.296C98.9247 17.1253 99.1967 16.8827 99.4527 16.568V12.888C99.2287 12.616 98.9834 12.424 98.7167 12.312C98.4554 12.2 98.1727 12.144 97.8687 12.144C97.5701 12.144 97.2981 12.2 97.0527 12.312C96.8127 12.424 96.6074 12.5947 96.4367 12.824C96.2714 13.048 96.1434 13.336 96.0527 13.688C95.9621 14.0347 95.9167 14.4453 95.9167 14.92C95.9167 15.4 95.9541 15.808 96.0287 16.144C96.1087 16.4747 96.2207 16.7467 96.3647 16.96C96.5087 17.168 96.6847 17.32 96.8927 17.416C97.1007 17.5067 97.3327 17.552 97.5887 17.552ZM107.282 10.664C107.799 10.664 108.274 10.7467 108.706 10.912C109.143 11.0773 109.519 11.32 109.834 11.64C110.148 11.9547 110.394 12.344 110.57 12.808C110.746 13.2667 110.834 13.792 110.834 14.384C110.834 14.5333 110.826 14.6587 110.81 14.76C110.799 14.856 110.775 14.9333 110.738 14.992C110.706 15.0453 110.66 15.0853 110.602 15.112C110.543 15.1333 110.468 15.144 110.378 15.144H105.306C105.364 15.9867 105.591 16.6053 105.986 17C106.38 17.3947 106.903 17.592 107.554 17.592C107.874 17.592 108.148 17.5547 108.378 17.48C108.612 17.4053 108.815 17.3227 108.986 17.232C109.162 17.1413 109.314 17.0587 109.442 16.984C109.575 16.9093 109.703 16.872 109.826 16.872C109.906 16.872 109.975 16.888 110.034 16.92C110.092 16.952 110.143 16.9973 110.186 17.056L110.762 17.776C110.543 18.032 110.298 18.248 110.026 18.424C109.754 18.5947 109.468 18.7333 109.17 18.84C108.876 18.9413 108.575 19.0133 108.266 19.056C107.962 19.0987 107.666 19.12 107.378 19.12C106.807 19.12 106.276 19.0267 105.786 18.84C105.295 18.648 104.868 18.368 104.506 18C104.143 17.6267 103.858 17.168 103.65 16.624C103.442 16.0747 103.338 15.44 103.338 14.72C103.338 14.16 103.428 13.6347 103.61 13.144C103.791 12.648 104.05 12.2187 104.386 11.856C104.727 11.488 105.14 11.1973 105.626 10.984C106.116 10.7707 106.668 10.664 107.282 10.664ZM107.322 12.08C106.746 12.08 106.295 12.2427 105.97 12.568C105.644 12.8933 105.436 13.3547 105.346 13.952H109.058C109.058 13.696 109.023 13.456 108.954 13.232C108.884 13.0027 108.778 12.8027 108.634 12.632C108.49 12.4613 108.308 12.328 108.09 12.232C107.871 12.1307 107.615 12.08 107.322 12.08ZM116.261 10.664C116.874 10.664 117.429 10.7627 117.925 10.96C118.426 11.1573 118.853 11.4373 119.205 11.8C119.557 12.1627 119.829 12.6053 120.021 13.128C120.213 13.6507 120.309 14.2347 120.309 14.88C120.309 15.5307 120.213 16.1173 120.021 16.64C119.829 17.1627 119.557 17.608 119.205 17.976C118.853 18.344 118.426 18.6267 117.925 18.824C117.429 19.0213 116.874 19.12 116.261 19.12C115.647 19.12 115.09 19.0213 114.589 18.824C114.087 18.6267 113.658 18.344 113.301 17.976C112.949 17.608 112.674 17.1627 112.477 16.64C112.285 16.1173 112.189 15.5307 112.189 14.88C112.189 14.2347 112.285 13.6507 112.477 13.128C112.674 12.6053 112.949 12.1627 113.301 11.8C113.658 11.4373 114.087 11.1573 114.589 10.96C115.09 10.7627 115.647 10.664 116.261 10.664ZM116.261 17.6C116.943 17.6 117.447 17.3707 117.773 16.912C118.103 16.4533 118.269 15.7813 118.269 14.896C118.269 14.0107 118.103 13.336 117.773 12.872C117.447 12.408 116.943 12.176 116.261 12.176C115.567 12.176 115.055 12.4107 114.725 12.88C114.394 13.344 114.229 14.016 114.229 14.896C114.229 15.776 114.394 16.448 114.725 16.912C115.055 17.3707 115.567 17.6 116.261 17.6ZM127.042 12.392C126.989 12.4773 126.933 12.5387 126.874 12.576C126.816 12.608 126.741 12.624 126.65 12.624C126.554 12.624 126.45 12.5973 126.338 12.544C126.232 12.4907 126.106 12.432 125.962 12.368C125.818 12.2987 125.653 12.2373 125.466 12.184C125.285 12.1307 125.069 12.104 124.818 12.104C124.429 12.104 124.122 12.1867 123.898 12.352C123.674 12.5173 123.562 12.7333 123.562 13C123.562 13.176 123.618 13.3253 123.73 13.448C123.848 13.5653 124 13.6693 124.186 13.76C124.378 13.8507 124.594 13.9333 124.834 14.008C125.074 14.0773 125.32 14.1547 125.57 14.24C125.821 14.3253 126.066 14.424 126.306 14.536C126.546 14.6427 126.76 14.7813 126.946 14.952C127.138 15.1173 127.29 15.3173 127.402 15.552C127.52 15.7867 127.578 16.0693 127.578 16.4C127.578 16.7947 127.506 17.16 127.362 17.496C127.218 17.8267 127.008 18.1147 126.73 18.36C126.453 18.6 126.109 18.7893 125.698 18.928C125.293 19.0613 124.826 19.128 124.298 19.128C124.016 19.128 123.738 19.1013 123.466 19.048C123.2 19 122.941 18.9307 122.69 18.84C122.445 18.7493 122.216 18.6427 122.002 18.52C121.794 18.3973 121.61 18.264 121.45 18.12L121.906 17.368C121.965 17.2773 122.034 17.208 122.114 17.16C122.194 17.112 122.296 17.088 122.418 17.088C122.541 17.088 122.656 17.1227 122.762 17.192C122.874 17.2613 123.002 17.336 123.146 17.416C123.29 17.496 123.458 17.5707 123.65 17.64C123.848 17.7093 124.096 17.744 124.394 17.744C124.629 17.744 124.829 17.7173 124.994 17.664C125.165 17.6053 125.304 17.5307 125.41 17.44C125.522 17.3493 125.602 17.2453 125.65 17.128C125.704 17.0053 125.73 16.88 125.73 16.752C125.73 16.56 125.672 16.4027 125.554 16.28C125.442 16.1573 125.29 16.0507 125.098 15.96C124.912 15.8693 124.696 15.7893 124.45 15.72C124.21 15.6453 123.962 15.5653 123.706 15.48C123.456 15.3947 123.208 15.296 122.962 15.184C122.722 15.0667 122.506 14.92 122.314 14.744C122.128 14.568 121.976 14.352 121.858 14.096C121.746 13.84 121.69 13.5307 121.69 13.168C121.69 12.832 121.757 12.512 121.89 12.208C122.024 11.904 122.218 11.64 122.474 11.416C122.736 11.1867 123.058 11.0053 123.442 10.872C123.832 10.7333 124.28 10.664 124.786 10.664C125.352 10.664 125.866 10.7573 126.33 10.944C126.794 11.1307 127.181 11.376 127.49 11.68L127.042 12.392Z" fill="#2B2C43"/>
<circle cx="14.5" cy="14.5" r="13.8696" stroke="#2E47BD" stroke-width="1.26087"/>
<path d="M18.5435 13.0386C19.3841 13.5239 19.3841 14.7372 18.5435 15.2225L12.8696 18.4983C12.029 18.9836 10.9783 18.377 10.9783 17.4064L10.9783 10.8547C10.9783 9.88406 12.029 9.27743 12.8696 9.76274L18.5435 13.0386Z" fill="#2E47BD"/>
</svg>
