<svg width="212" height="28" viewBox="0 0 212 28" fill="none" xmlns="http://www.w3.org/2000/svg">
<circle cx="14" cy="14" r="13" stroke="#3D5ECE" stroke-width="2"/>
<path d="M10 12.875L14 16.875L18 12.875" stroke="#3D5ECE" stroke-width="2" stroke-linecap="round" stroke-linejoin="round"/>
<path d="M57.368 11.536C57.3093 11.6533 57.24 11.736 57.16 11.784C57.0853 11.832 56.9947 11.856 56.888 11.856C56.7813 11.856 56.6613 11.816 56.528 11.736C56.3947 11.6507 56.2373 11.5573 56.056 11.456C55.8747 11.3547 55.6613 11.264 55.416 11.184C55.176 11.0987 54.8907 11.056 54.56 11.056C54.2613 11.056 54 11.0933 53.776 11.168C53.5573 11.2373 53.3707 11.336 53.216 11.464C53.0667 11.592 52.9547 11.7467 52.88 11.928C52.8053 12.104 52.768 12.2987 52.768 12.512C52.768 12.784 52.8427 13.0107 52.992 13.192C53.1467 13.3733 53.3493 13.528 53.6 13.656C53.8507 13.784 54.136 13.8987 54.456 14C54.776 14.1013 55.1013 14.2107 55.432 14.328C55.768 14.44 56.096 14.5733 56.416 14.728C56.736 14.8773 57.0213 15.0693 57.272 15.304C57.5227 15.5333 57.7227 15.816 57.872 16.152C58.0267 16.488 58.104 16.896 58.104 17.376C58.104 17.8987 58.0133 18.3893 57.832 18.848C57.656 19.3013 57.3947 19.6987 57.048 20.04C56.7067 20.376 56.288 20.6427 55.792 20.84C55.296 21.032 54.728 21.128 54.088 21.128C53.72 21.128 53.3573 21.0907 53 21.016C52.6427 20.9467 52.2987 20.8453 51.968 20.712C51.6427 20.5787 51.336 20.4187 51.048 20.232C50.7653 20.0453 50.512 19.8373 50.288 19.608L50.912 18.576C50.9707 18.5013 51.04 18.44 51.12 18.392C51.2053 18.3387 51.2987 18.312 51.4 18.312C51.5333 18.312 51.6773 18.368 51.832 18.48C51.9867 18.5867 52.168 18.7067 52.376 18.84C52.5893 18.9733 52.8373 19.096 53.12 19.208C53.408 19.3147 53.752 19.368 54.152 19.368C54.7653 19.368 55.24 19.224 55.576 18.936C55.912 18.6427 56.08 18.224 56.08 17.68C56.08 17.376 56.0027 17.128 55.848 16.936C55.6987 16.744 55.4987 16.584 55.248 16.456C54.9973 16.3227 54.712 16.2107 54.392 16.12C54.072 16.0293 53.7467 15.9307 53.416 15.824C53.0853 15.7173 52.76 15.5893 52.44 15.44C52.12 15.2907 51.8347 15.096 51.584 14.856C51.3333 14.616 51.1307 14.3173 50.976 13.96C50.8267 13.5973 50.752 13.152 50.752 12.624C50.752 12.2027 50.8347 11.792 51 11.392C51.1707 10.992 51.416 10.6373 51.736 10.328C52.0613 10.0187 52.4587 9.77067 52.928 9.584C53.3973 9.39733 53.9333 9.304 54.536 9.304C55.2187 9.304 55.848 9.41067 56.424 9.624C57 9.83733 57.4907 10.136 57.896 10.52L57.368 11.536ZM65.7221 14.528C65.6635 14.6027 65.6048 14.6613 65.5461 14.704C65.4928 14.7467 65.4128 14.768 65.3061 14.768C65.2048 14.768 65.1061 14.7387 65.0101 14.68C64.9141 14.616 64.7995 14.5467 64.6661 14.472C64.5328 14.392 64.3728 14.3227 64.1861 14.264C64.0048 14.2 63.7781 14.168 63.5061 14.168C63.1595 14.168 62.8555 14.232 62.5941 14.36C62.3328 14.4827 62.1141 14.6613 61.9381 14.896C61.7675 15.1307 61.6395 15.416 61.5541 15.752C61.4688 16.0827 61.4261 16.4587 61.4261 16.88C61.4261 17.3173 61.4715 17.7067 61.5621 18.048C61.6581 18.3893 61.7941 18.6773 61.9701 18.912C62.1461 19.1413 62.3595 19.3173 62.6101 19.44C62.8608 19.5573 63.1435 19.616 63.4581 19.616C63.7728 19.616 64.0261 19.5787 64.2181 19.504C64.4155 19.424 64.5808 19.3387 64.7141 19.248C64.8475 19.152 64.9621 19.0667 65.0581 18.992C65.1595 18.912 65.2715 18.872 65.3941 18.872C65.5541 18.872 65.6741 18.9333 65.7541 19.056L66.3221 19.776C66.1035 20.032 65.8661 20.248 65.6101 20.424C65.3541 20.5947 65.0875 20.7333 64.8101 20.84C64.5381 20.9413 64.2555 21.0133 63.9621 21.056C63.6688 21.0987 63.3781 21.12 63.0901 21.12C62.5835 21.12 62.1061 21.0267 61.6581 20.84C61.2101 20.648 60.8181 20.3707 60.4821 20.008C60.1515 19.6453 59.8875 19.2027 59.6901 18.68C59.4981 18.152 59.4021 17.552 59.4021 16.88C59.4021 16.2773 59.4875 15.72 59.6581 15.208C59.8341 14.6907 60.0901 14.2453 60.4261 13.872C60.7621 13.4933 61.1781 13.1973 61.6741 12.984C62.1701 12.7707 62.7408 12.664 63.3861 12.664C63.9995 12.664 64.5355 12.7627 64.9941 12.96C65.4581 13.1573 65.8741 13.44 66.2421 13.808L65.7221 14.528ZM67.8991 21V12.792H69.0591C69.2618 12.792 69.4031 12.8293 69.4831 12.904C69.5631 12.9787 69.6165 13.1067 69.6431 13.288L69.7631 14.28C70.0565 13.7733 70.4005 13.3733 70.7951 13.08C71.1898 12.7867 71.6325 12.64 72.1231 12.64C72.5285 12.64 72.8645 12.7333 73.1311 12.92L72.8751 14.4C72.8591 14.496 72.8245 14.5653 72.7711 14.608C72.7178 14.6453 72.6458 14.664 72.5551 14.664C72.4751 14.664 72.3658 14.6453 72.2271 14.608C72.0885 14.5707 71.9045 14.552 71.6751 14.552C71.2645 14.552 70.9125 14.6667 70.6191 14.896C70.3258 15.12 70.0778 15.4507 69.8751 15.888V21H67.8991ZM78.2544 12.664C78.8677 12.664 79.4224 12.7627 79.9184 12.96C80.4197 13.1573 80.8464 13.4373 81.1984 13.8C81.5504 14.1627 81.8224 14.6053 82.0144 15.128C82.2064 15.6507 82.3024 16.2347 82.3024 16.88C82.3024 17.5307 82.2064 18.1173 82.0144 18.64C81.8224 19.1627 81.5504 19.608 81.1984 19.976C80.8464 20.344 80.4197 20.6267 79.9184 20.824C79.4224 21.0213 78.8677 21.12 78.2544 21.12C77.641 21.12 77.0837 21.0213 76.5824 20.824C76.081 20.6267 75.6517 20.344 75.2944 19.976C74.9424 19.608 74.6677 19.1627 74.4704 18.64C74.2784 18.1173 74.1824 17.5307 74.1824 16.88C74.1824 16.2347 74.2784 15.6507 74.4704 15.128C74.6677 14.6053 74.9424 14.1627 75.2944 13.8C75.6517 13.4373 76.081 13.1573 76.5824 12.96C77.0837 12.7627 77.641 12.664 78.2544 12.664ZM78.2544 19.6C78.937 19.6 79.441 19.3707 79.7664 18.912C80.097 18.4533 80.2624 17.7813 80.2624 16.896C80.2624 16.0107 80.097 15.336 79.7664 14.872C79.441 14.408 78.937 14.176 78.2544 14.176C77.561 14.176 77.049 14.4107 76.7184 14.88C76.3877 15.344 76.2224 16.016 76.2224 16.896C76.2224 17.776 76.3877 18.448 76.7184 18.912C77.049 19.3707 77.561 19.6 78.2544 19.6ZM86.2681 9.112V21H84.2921V9.112H86.2681ZM90.9319 9.112V21H88.9559V9.112H90.9319ZM107.289 15.216C107.289 16.064 107.148 16.8427 106.865 17.552C106.583 18.2613 106.185 18.872 105.673 19.384C105.161 19.896 104.545 20.2933 103.825 20.576C103.105 20.8587 102.308 21 101.433 21H97.0174V9.432H101.433C102.308 9.432 103.105 9.576 103.825 9.864C104.545 10.1467 105.161 10.544 105.673 11.056C106.185 11.5627 106.583 12.1707 106.865 12.88C107.148 13.5893 107.289 14.368 107.289 15.216ZM105.089 15.216C105.089 14.5813 105.004 14.0133 104.833 13.512C104.663 13.0053 104.42 12.5787 104.105 12.232C103.791 11.88 103.407 11.6107 102.953 11.424C102.505 11.2373 101.999 11.144 101.433 11.144H99.1854V19.288H101.433C101.999 19.288 102.505 19.1947 102.953 19.008C103.407 18.8213 103.791 18.5547 104.105 18.208C104.42 17.856 104.663 17.4293 104.833 16.928C105.004 16.4213 105.089 15.8507 105.089 15.216ZM112.683 12.664C113.296 12.664 113.851 12.7627 114.347 12.96C114.848 13.1573 115.275 13.4373 115.627 13.8C115.979 14.1627 116.251 14.6053 116.443 15.128C116.635 15.6507 116.731 16.2347 116.731 16.88C116.731 17.5307 116.635 18.1173 116.443 18.64C116.251 19.1627 115.979 19.608 115.627 19.976C115.275 20.344 114.848 20.6267 114.347 20.824C113.851 21.0213 113.296 21.12 112.683 21.12C112.069 21.12 111.512 21.0213 111.011 20.824C110.509 20.6267 110.08 20.344 109.723 19.976C109.371 19.608 109.096 19.1627 108.899 18.64C108.707 18.1173 108.611 17.5307 108.611 16.88C108.611 16.2347 108.707 15.6507 108.899 15.128C109.096 14.6053 109.371 14.1627 109.723 13.8C110.08 13.4373 110.509 13.1573 111.011 12.96C111.512 12.7627 112.069 12.664 112.683 12.664ZM112.683 19.6C113.365 19.6 113.869 19.3707 114.195 18.912C114.525 18.4533 114.691 17.7813 114.691 16.896C114.691 16.0107 114.525 15.336 114.195 14.872C113.869 14.408 113.365 14.176 112.683 14.176C111.989 14.176 111.477 14.4107 111.147 14.88C110.816 15.344 110.651 16.016 110.651 16.896C110.651 17.776 110.816 18.448 111.147 18.912C111.477 19.3707 111.989 19.6 112.683 19.6ZM117.592 12.792H119.16C119.31 12.792 119.435 12.8267 119.536 12.896C119.638 12.9653 119.702 13.0533 119.728 13.16L120.904 17.544C120.968 17.784 121.019 18.0187 121.056 18.248C121.099 18.4773 121.139 18.7067 121.176 18.936C121.235 18.7067 121.296 18.4773 121.36 18.248C121.43 18.0187 121.502 17.784 121.576 17.544L122.936 13.144C122.968 13.0373 123.032 12.9493 123.128 12.88C123.224 12.8107 123.336 12.776 123.464 12.776H124.336C124.48 12.776 124.6 12.8107 124.696 12.88C124.792 12.9493 124.856 13.0373 124.888 13.144L126.232 17.624C126.302 17.8533 126.363 18.0773 126.416 18.296C126.475 18.5093 126.531 18.7253 126.584 18.944C126.622 18.7147 126.662 18.4853 126.704 18.256C126.752 18.0267 126.811 17.7893 126.88 17.544L128.096 13.16C128.123 13.0533 128.187 12.9653 128.288 12.896C128.39 12.8267 128.507 12.792 128.64 12.792H130.136L127.536 21H125.944C125.774 21 125.651 20.8827 125.576 20.648L124.096 15.904C124.048 15.7493 124.003 15.5947 123.96 15.44C123.923 15.28 123.891 15.1227 123.864 14.968C123.832 15.128 123.798 15.288 123.76 15.448C123.723 15.6027 123.68 15.76 123.632 15.92L122.136 20.648C122.062 20.8827 121.918 21 121.704 21H120.192L117.592 12.792ZM131.568 21V12.792H132.776C133.032 12.792 133.2 12.912 133.28 13.152L133.416 13.8C133.582 13.6293 133.755 13.4747 133.936 13.336C134.123 13.1973 134.318 13.0773 134.52 12.976C134.728 12.8747 134.95 12.7973 135.184 12.744C135.419 12.6907 135.675 12.664 135.952 12.664C136.4 12.664 136.798 12.7413 137.144 12.896C137.491 13.0453 137.779 13.2587 138.008 13.536C138.243 13.808 138.419 14.136 138.536 14.52C138.659 14.8987 138.72 15.3173 138.72 15.776V21H136.744V15.776C136.744 15.2747 136.627 14.888 136.392 14.616C136.163 14.3387 135.816 14.2 135.352 14.2C135.011 14.2 134.691 14.2773 134.392 14.432C134.094 14.5867 133.811 14.7973 133.544 15.064V21H131.568ZM151.804 9.432V11.144H146.676V14.568H151.004V16.288H146.676V21H144.508V9.432H151.804ZM156.689 12.664C157.302 12.664 157.857 12.7627 158.353 12.96C158.854 13.1573 159.281 13.4373 159.633 13.8C159.985 14.1627 160.257 14.6053 160.449 15.128C160.641 15.6507 160.737 16.2347 160.737 16.88C160.737 17.5307 160.641 18.1173 160.449 18.64C160.257 19.1627 159.985 19.608 159.633 19.976C159.281 20.344 158.854 20.6267 158.353 20.824C157.857 21.0213 157.302 21.12 156.689 21.12C156.075 21.12 155.518 21.0213 155.017 20.824C154.515 20.6267 154.086 20.344 153.729 19.976C153.377 19.608 153.102 19.1627 152.905 18.64C152.713 18.1173 152.617 17.5307 152.617 16.88C152.617 16.2347 152.713 15.6507 152.905 15.128C153.102 14.6053 153.377 14.1627 153.729 13.8C154.086 13.4373 154.515 13.1573 155.017 12.96C155.518 12.7627 156.075 12.664 156.689 12.664ZM156.689 19.6C157.371 19.6 157.875 19.3707 158.201 18.912C158.531 18.4533 158.697 17.7813 158.697 16.896C158.697 16.0107 158.531 15.336 158.201 14.872C157.875 14.408 157.371 14.176 156.689 14.176C155.995 14.176 155.483 14.4107 155.153 14.88C154.822 15.344 154.657 16.016 154.657 16.896C154.657 17.776 154.822 18.448 155.153 18.912C155.483 19.3707 155.995 19.6 156.689 19.6ZM162.599 21V12.792H163.759C163.961 12.792 164.103 12.8293 164.183 12.904C164.263 12.9787 164.316 13.1067 164.343 13.288L164.463 14.28C164.756 13.7733 165.1 13.3733 165.495 13.08C165.889 12.7867 166.332 12.64 166.823 12.64C167.228 12.64 167.564 12.7333 167.831 12.92L167.575 14.4C167.559 14.496 167.524 14.5653 167.471 14.608C167.417 14.6453 167.345 14.664 167.255 14.664C167.175 14.664 167.065 14.6453 166.927 14.608C166.788 14.5707 166.604 14.552 166.375 14.552C165.964 14.552 165.612 14.6667 165.319 14.896C165.025 15.12 164.777 15.4507 164.575 15.888V21H162.599ZM178.784 16.2C178.874 16.3707 178.957 16.5493 179.032 16.736C179.112 16.9173 179.189 17.1013 179.264 17.288C179.338 17.096 179.416 16.9067 179.496 16.72C179.576 16.5333 179.661 16.3547 179.752 16.184L183.176 9.776C183.218 9.696 183.261 9.632 183.304 9.584C183.352 9.536 183.402 9.50133 183.456 9.48C183.514 9.45867 183.578 9.44533 183.648 9.44C183.717 9.43467 183.8 9.432 183.896 9.432H185.52V21H183.624V13.528C183.624 13.3893 183.626 13.2373 183.632 13.072C183.642 12.9067 183.656 12.7387 183.672 12.568L180.176 19.128C180.096 19.2773 179.992 19.3947 179.864 19.48C179.736 19.56 179.586 19.6 179.416 19.6H179.12C178.949 19.6 178.8 19.56 178.672 19.48C178.544 19.3947 178.44 19.2773 178.36 19.128L174.816 12.544C174.837 12.72 174.85 12.8933 174.856 13.064C174.866 13.2293 174.872 13.384 174.872 13.528V21H172.976V9.432H174.6C174.696 9.432 174.778 9.43467 174.848 9.44C174.917 9.44533 174.978 9.45867 175.032 9.48C175.09 9.50133 175.144 9.536 175.192 9.584C175.24 9.632 175.285 9.696 175.328 9.776L178.784 16.2ZM191.563 12.664C192.176 12.664 192.731 12.7627 193.227 12.96C193.728 13.1573 194.155 13.4373 194.507 13.8C194.859 14.1627 195.131 14.6053 195.323 15.128C195.515 15.6507 195.611 16.2347 195.611 16.88C195.611 17.5307 195.515 18.1173 195.323 18.64C195.131 19.1627 194.859 19.608 194.507 19.976C194.155 20.344 193.728 20.6267 193.227 20.824C192.731 21.0213 192.176 21.12 191.563 21.12C190.949 21.12 190.392 21.0213 189.891 20.824C189.389 20.6267 188.96 20.344 188.603 19.976C188.251 19.608 187.976 19.1627 187.779 18.64C187.587 18.1173 187.491 17.5307 187.491 16.88C187.491 16.2347 187.587 15.6507 187.779 15.128C187.976 14.6053 188.251 14.1627 188.603 13.8C188.96 13.4373 189.389 13.1573 189.891 12.96C190.392 12.7627 190.949 12.664 191.563 12.664ZM191.563 19.6C192.245 19.6 192.749 19.3707 193.075 18.912C193.405 18.4533 193.571 17.7813 193.571 16.896C193.571 16.0107 193.405 15.336 193.075 14.872C192.749 14.408 192.245 14.176 191.563 14.176C190.869 14.176 190.357 14.4107 190.027 14.88C189.696 15.344 189.531 16.016 189.531 16.896C189.531 17.776 189.696 18.448 190.027 18.912C190.357 19.3707 190.869 19.6 191.563 19.6ZM197.472 21V12.792H198.632C198.835 12.792 198.976 12.8293 199.056 12.904C199.136 12.9787 199.19 13.1067 199.216 13.288L199.336 14.28C199.63 13.7733 199.974 13.3733 200.368 13.08C200.763 12.7867 201.206 12.64 201.696 12.64C202.102 12.64 202.438 12.7333 202.704 12.92L202.448 14.4C202.432 14.496 202.398 14.5653 202.344 14.608C202.291 14.6453 202.219 14.664 202.128 14.664C202.048 14.664 201.939 14.6453 201.8 14.608C201.662 14.5707 201.478 14.552 201.248 14.552C200.838 14.552 200.486 14.6667 200.192 14.896C199.899 15.12 199.651 15.4507 199.448 15.888V21H197.472ZM207.716 12.664C208.233 12.664 208.708 12.7467 209.14 12.912C209.577 13.0773 209.953 13.32 210.268 13.64C210.582 13.9547 210.828 14.344 211.004 14.808C211.18 15.2667 211.268 15.792 211.268 16.384C211.268 16.5333 211.26 16.6587 211.244 16.76C211.233 16.856 211.209 16.9333 211.172 16.992C211.14 17.0453 211.094 17.0853 211.036 17.112C210.977 17.1333 210.902 17.144 210.812 17.144H205.74C205.798 17.9867 206.025 18.6053 206.42 19C206.814 19.3947 207.337 19.592 207.988 19.592C208.308 19.592 208.582 19.5547 208.812 19.48C209.046 19.4053 209.249 19.3227 209.42 19.232C209.596 19.1413 209.748 19.0587 209.876 18.984C210.009 18.9093 210.137 18.872 210.26 18.872C210.34 18.872 210.409 18.888 210.468 18.92C210.526 18.952 210.577 18.9973 210.62 19.056L211.196 19.776C210.977 20.032 210.732 20.248 210.46 20.424C210.188 20.5947 209.902 20.7333 209.604 20.84C209.31 20.9413 209.009 21.0133 208.7 21.056C208.396 21.0987 208.1 21.12 207.812 21.12C207.241 21.12 206.71 21.0267 206.22 20.84C205.729 20.648 205.302 20.368 204.94 20C204.577 19.6267 204.292 19.168 204.084 18.624C203.876 18.0747 203.772 17.44 203.772 16.72C203.772 16.16 203.862 15.6347 204.044 15.144C204.225 14.648 204.484 14.2187 204.82 13.856C205.161 13.488 205.574 13.1973 206.06 12.984C206.55 12.7707 207.102 12.664 207.716 12.664ZM207.756 14.08C207.18 14.08 206.729 14.2427 206.404 14.568C206.078 14.8933 205.87 15.3547 205.78 15.952H209.492C209.492 15.696 209.457 15.456 209.388 15.232C209.318 15.0027 209.212 14.8027 209.068 14.632C208.924 14.4613 208.742 14.328 208.524 14.232C208.305 14.1307 208.049 14.08 207.756 14.08Z" fill="#2B2C43"/>
</svg>
