<svg width="354" height="22" viewBox="0 0 354 22" fill="none" xmlns="http://www.w3.org/2000/svg">
<path opacity="0.1" d="M154 11H290" stroke="#2B2C43" stroke-width="3"/>
<path d="M154 11H188" stroke="#2B2C43" stroke-width="3"/>
<path d="M314.696 4.851C315.248 4.851 315.74 4.929 316.172 5.085C316.61 5.235 316.979 5.445 317.279 5.715C317.585 5.985 317.816 6.303 317.972 6.669C318.134 7.035 318.215 7.431 318.215 7.857C318.215 8.331 318.158 8.745 318.044 9.099C317.936 9.453 317.777 9.762 317.567 10.026C317.357 10.284 317.099 10.5 316.793 10.674C316.487 10.848 316.139 10.989 315.749 11.097C316.421 11.325 316.922 11.667 317.252 12.123C317.582 12.573 317.747 13.116 317.747 13.752C317.747 14.454 317.609 15.078 317.333 15.624C317.063 16.17 316.697 16.629 316.235 17.001C315.779 17.373 315.254 17.658 314.66 17.856C314.066 18.048 313.445 18.144 312.797 18.144C312.185 18.144 311.648 18.078 311.186 17.946C310.724 17.808 310.325 17.598 309.989 17.316C309.659 17.034 309.389 16.677 309.179 16.245C308.969 15.813 308.807 15.303 308.693 14.715L309.692 14.328C309.872 14.256 310.043 14.22 310.205 14.22C310.361 14.22 310.49 14.25 310.592 14.31C310.7 14.37 310.775 14.46 310.817 14.58C310.913 14.88 311.024 15.141 311.15 15.363C311.276 15.579 311.426 15.762 311.6 15.912C311.774 16.056 311.975 16.164 312.203 16.236C312.431 16.308 312.695 16.344 312.995 16.344C313.409 16.344 313.778 16.272 314.102 16.128C314.426 15.984 314.699 15.795 314.921 15.561C315.143 15.321 315.311 15.048 315.425 14.742C315.545 14.436 315.605 14.121 315.605 13.797C315.605 13.551 315.566 13.326 315.488 13.122C315.41 12.912 315.266 12.735 315.056 12.591C314.846 12.441 314.558 12.324 314.192 12.24C313.826 12.15 313.355 12.105 312.779 12.105L312.986 10.584C313.544 10.578 314.018 10.524 314.408 10.422C314.804 10.314 315.125 10.161 315.371 9.963C315.617 9.765 315.794 9.528 315.902 9.252C316.016 8.97 316.073 8.649 316.073 8.289C316.073 7.755 315.917 7.35 315.605 7.074C315.299 6.798 314.882 6.66 314.354 6.66C313.802 6.66 313.328 6.804 312.932 7.092C312.542 7.38 312.251 7.755 312.059 8.217C311.969 8.439 311.855 8.598 311.717 8.694C311.579 8.79 311.414 8.838 311.222 8.838C311.138 8.838 311.042 8.829 310.934 8.811L309.836 8.613C309.998 7.995 310.235 7.452 310.547 6.984C310.859 6.51 311.225 6.117 311.645 5.805C312.071 5.487 312.542 5.25 313.058 5.094C313.574 4.932 314.12 4.851 314.696 4.851ZM324.001 18.063C323.875 18.327 323.692 18.528 323.452 18.666C323.218 18.804 322.993 18.873 322.777 18.873H321.859L328.186 5.661C328.306 5.415 328.468 5.229 328.672 5.103C328.882 4.971 329.116 4.905 329.374 4.905H330.274L324.001 18.063Z" fill="#2B2C43"/>
<path d="M334.097 16.389H336.752L337.724 8.442L337.895 7.686L335.708 9.36C335.624 9.426 335.543 9.471 335.465 9.495C335.387 9.519 335.312 9.531 335.24 9.531C335.12 9.531 335.012 9.507 334.916 9.459C334.826 9.405 334.763 9.345 334.727 9.279L334.178 8.343L338.534 4.968H340.307L338.894 16.389H341.27L341.072 18H333.908L334.097 16.389ZM349.227 4.851C349.773 4.851 350.268 4.929 350.712 5.085C351.156 5.241 351.534 5.46 351.846 5.742C352.164 6.024 352.407 6.366 352.575 6.768C352.749 7.17 352.836 7.614 352.836 8.1C352.836 8.64 352.752 9.135 352.584 9.585C352.422 10.035 352.197 10.461 351.909 10.863C351.627 11.265 351.294 11.655 350.91 12.033C350.526 12.411 350.115 12.798 349.677 13.194L346.32 16.254C346.608 16.176 346.89 16.116 347.166 16.074C347.448 16.026 347.712 16.002 347.958 16.002H351.423C351.633 16.002 351.798 16.059 351.918 16.173C352.038 16.287 352.098 16.437 352.098 16.623C352.098 16.635 352.095 16.653 352.089 16.677C352.089 16.695 352.083 16.749 352.071 16.839C352.065 16.923 352.05 17.058 352.026 17.244C352.002 17.424 351.969 17.676 351.927 18H343.053L343.134 17.289C343.152 17.151 343.2 17.001 343.278 16.839C343.356 16.677 343.47 16.53 343.62 16.398L348.084 12.411C348.516 12.027 348.888 11.667 349.2 11.331C349.518 10.995 349.782 10.665 349.992 10.341C350.202 10.017 350.358 9.693 350.46 9.369C350.562 9.039 350.613 8.688 350.613 8.316C350.613 7.782 350.457 7.374 350.145 7.092C349.833 6.804 349.41 6.66 348.876 6.66C348.606 6.66 348.351 6.699 348.111 6.777C347.877 6.849 347.664 6.954 347.472 7.092C347.28 7.23 347.109 7.395 346.959 7.587C346.815 7.779 346.695 7.989 346.599 8.217C346.509 8.439 346.392 8.598 346.248 8.694C346.11 8.79 345.942 8.838 345.744 8.838C345.66 8.838 345.564 8.829 345.456 8.811L344.358 8.613C344.526 7.995 344.766 7.452 345.078 6.984C345.39 6.51 345.759 6.117 346.185 5.805C346.611 5.487 347.082 5.25 347.598 5.094C348.114 4.932 348.657 4.851 349.227 4.851Z" fill="#2B2C43"/>
<path d="M2.466 5.103C2.622 5.103 2.736 5.124 2.808 5.166C2.886 5.202 2.973 5.28 3.069 5.4L10.539 15.12C10.521 14.964 10.509 14.814 10.503 14.67C10.497 14.52 10.494 14.376 10.494 14.238V5.103H12.024V18H11.142C11.004 18 10.887 17.976 10.791 17.928C10.701 17.88 10.611 17.799 10.521 17.685L3.06 7.974C3.072 8.124 3.081 8.271 3.087 8.415C3.093 8.559 3.096 8.691 3.096 8.811V18H1.566V5.103H2.466ZM16.6655 8.883V14.697C16.6655 15.387 16.8245 15.921 17.1425 16.299C17.4605 16.677 17.9405 16.866 18.5825 16.866C19.0505 16.866 19.4915 16.755 19.9055 16.533C20.3195 16.311 20.7005 16.002 21.0485 15.606V8.883H22.6505V18H21.6965C21.4685 18 21.3245 17.889 21.2645 17.667L21.1385 16.686C20.7425 17.124 20.2985 17.478 19.8065 17.748C19.3145 18.012 18.7505 18.144 18.1145 18.144C17.6165 18.144 17.1755 18.063 16.7915 17.901C16.4135 17.733 16.0955 17.499 15.8375 17.199C15.5795 16.899 15.3845 16.536 15.2525 16.11C15.1265 15.684 15.0635 15.213 15.0635 14.697V8.883H16.6655ZM25.6414 18V8.883H26.5954C26.8234 8.883 26.9674 8.994 27.0274 9.216L27.1444 10.152C27.4804 9.738 27.8554 9.399 28.2694 9.135C28.6894 8.871 29.1754 8.739 29.7274 8.739C30.3454 8.739 30.8434 8.91 31.2214 9.252C31.6054 9.594 31.8814 10.056 32.0494 10.638C32.1754 10.308 32.3404 10.023 32.5444 9.783C32.7544 9.543 32.9884 9.345 33.2464 9.189C33.5044 9.033 33.7774 8.919 34.0654 8.847C34.3594 8.775 34.6564 8.739 34.9564 8.739C35.4364 8.739 35.8624 8.817 36.2344 8.973C36.6124 9.123 36.9304 9.345 37.1884 9.639C37.4524 9.933 37.6534 10.296 37.7914 10.728C37.9294 11.154 37.9984 11.643 37.9984 12.195V18H36.3964V12.195C36.3964 11.481 36.2404 10.941 35.9284 10.575C35.6164 10.203 35.1634 10.017 34.5694 10.017C34.3054 10.017 34.0534 10.065 33.8134 10.161C33.5794 10.251 33.3724 10.386 33.1924 10.566C33.0124 10.746 32.8684 10.974 32.7604 11.25C32.6584 11.52 32.6074 11.835 32.6074 12.195V18H31.0054V12.195C31.0054 11.463 30.8584 10.917 30.5644 10.557C30.2704 10.197 29.8414 10.017 29.2774 10.017C28.8814 10.017 28.5124 10.125 28.1704 10.341C27.8344 10.551 27.5254 10.839 27.2434 11.205V18H25.6414ZM40.8386 18V4.743H42.4496V10.197C42.8276 9.759 43.2596 9.408 43.7456 9.144C44.2376 8.874 44.7986 8.739 45.4286 8.739C45.9566 8.739 46.4336 8.838 46.8596 9.036C47.2856 9.234 47.6486 9.531 47.9486 9.927C48.2486 10.317 48.4796 10.803 48.6416 11.385C48.8036 11.961 48.8846 12.627 48.8846 13.383C48.8846 14.055 48.7946 14.682 48.6146 15.264C48.4346 15.84 48.1736 16.341 47.8316 16.767C47.4956 17.187 47.0816 17.52 46.5896 17.766C46.1036 18.006 45.5546 18.126 44.9426 18.126C44.3546 18.126 43.8536 18.012 43.4396 17.784C43.0316 17.556 42.6746 17.238 42.3686 16.83L42.2876 17.658C42.2396 17.886 42.1016 18 41.8736 18H40.8386ZM44.9066 10.017C44.3846 10.017 43.9256 10.137 43.5296 10.377C43.1396 10.617 42.7796 10.956 42.4496 11.394V15.804C42.7376 16.2 43.0556 16.479 43.4036 16.641C43.7576 16.803 44.1506 16.884 44.5826 16.884C45.4346 16.884 46.0886 16.581 46.5446 15.975C47.0006 15.369 47.2286 14.505 47.2286 13.383C47.2286 12.789 47.1746 12.279 47.0666 11.853C46.9646 11.427 46.8146 11.079 46.6166 10.809C46.4186 10.533 46.1756 10.332 45.8876 10.206C45.5996 10.08 45.2726 10.017 44.9066 10.017ZM54.8083 8.739C55.3543 8.739 55.8583 8.832 56.3203 9.018C56.7823 9.198 57.1813 9.462 57.5173 9.81C57.8533 10.152 58.1143 10.578 58.3003 11.088C58.4923 11.592 58.5883 12.168 58.5883 12.816C58.5883 13.068 58.5613 13.236 58.5073 13.32C58.4533 13.404 58.3513 13.446 58.2013 13.446H52.1353C52.1473 14.022 52.2253 14.523 52.3693 14.949C52.5133 15.375 52.7113 15.732 52.9633 16.02C53.2153 16.302 53.5153 16.515 53.8633 16.659C54.2113 16.797 54.6013 16.866 55.0333 16.866C55.4353 16.866 55.7803 16.821 56.0683 16.731C56.3623 16.635 56.6143 16.533 56.8243 16.425C57.0343 16.317 57.2083 16.218 57.3463 16.128C57.4903 16.032 57.6133 15.984 57.7153 15.984C57.8473 15.984 57.9493 16.035 58.0213 16.137L58.4713 16.722C58.2733 16.962 58.0363 17.172 57.7603 17.352C57.4843 17.526 57.1873 17.67 56.8693 17.784C56.5573 17.898 56.2333 17.982 55.8973 18.036C55.5613 18.096 55.2283 18.126 54.8983 18.126C54.2683 18.126 53.6863 18.021 53.1523 17.811C52.6243 17.595 52.1653 17.283 51.7753 16.875C51.3913 16.461 51.0913 15.951 50.8753 15.345C50.6593 14.739 50.5513 14.043 50.5513 13.257C50.5513 12.621 50.6473 12.027 50.8393 11.475C51.0373 10.923 51.3193 10.446 51.6853 10.044C52.0513 9.636 52.4983 9.318 53.0263 9.09C53.5543 8.856 54.1483 8.739 54.8083 8.739ZM54.8443 9.918C54.0703 9.918 53.4613 10.143 53.0173 10.593C52.5733 11.037 52.2973 11.655 52.1893 12.447H57.1483C57.1483 12.075 57.0973 11.736 56.9953 11.43C56.8933 11.118 56.7433 10.851 56.5453 10.629C56.3473 10.401 56.1043 10.227 55.8163 10.107C55.5343 9.981 55.2103 9.918 54.8443 9.918ZM60.9988 18V8.883H61.9168C62.0908 8.883 62.2108 8.916 62.2768 8.982C62.3428 9.048 62.3878 9.162 62.4118 9.324L62.5198 10.746C62.8318 10.11 63.2158 9.615 63.6718 9.261C64.1338 8.901 64.6738 8.721 65.2918 8.721C65.5438 8.721 65.7718 8.751 65.9758 8.811C66.1798 8.865 66.3688 8.943 66.5428 9.045L66.3358 10.242C66.2938 10.392 66.2008 10.467 66.0568 10.467C65.9728 10.467 65.8438 10.44 65.6698 10.386C65.4958 10.326 65.2528 10.296 64.9408 10.296C64.3828 10.296 63.9148 10.458 63.5368 10.782C63.1648 11.106 62.8528 11.577 62.6008 12.195V18H60.9988ZM76.149 8.739C76.815 8.739 77.415 8.85 77.949 9.072C78.489 9.294 78.945 9.609 79.317 10.017C79.695 10.425 79.983 10.92 80.181 11.502C80.385 12.078 80.487 12.723 80.487 13.437C80.487 14.157 80.385 14.805 80.181 15.381C79.983 15.957 79.695 16.449 79.317 16.857C78.945 17.265 78.489 17.58 77.949 17.802C77.415 18.018 76.815 18.126 76.149 18.126C75.483 18.126 74.88 18.018 74.34 17.802C73.806 17.58 73.35 17.265 72.972 16.857C72.594 16.449 72.303 15.957 72.099 15.381C71.895 14.805 71.793 14.157 71.793 13.437C71.793 12.723 71.895 12.078 72.099 11.502C72.303 10.92 72.594 10.425 72.972 10.017C73.35 9.609 73.806 9.294 74.34 9.072C74.88 8.85 75.483 8.739 76.149 8.739ZM76.149 16.875C77.049 16.875 77.721 16.575 78.165 15.975C78.609 15.369 78.831 14.526 78.831 13.446C78.831 12.36 78.609 11.514 78.165 10.908C77.721 10.302 77.049 9.999 76.149 9.999C75.693 9.999 75.297 10.077 74.961 10.233C74.625 10.389 74.343 10.614 74.115 10.908C73.893 11.202 73.725 11.565 73.611 11.997C73.503 12.423 73.449 12.906 73.449 13.446C73.449 13.986 73.503 14.469 73.611 14.895C73.725 15.321 73.893 15.681 74.115 15.975C74.343 16.263 74.625 16.485 74.961 16.641C75.297 16.797 75.693 16.875 76.149 16.875ZM83.181 18V10.251L82.173 10.134C82.047 10.104 81.942 10.059 81.858 9.999C81.78 9.933 81.741 9.84 81.741 9.72V9.063H83.181V8.181C83.181 7.659 83.253 7.197 83.397 6.795C83.547 6.387 83.757 6.045 84.027 5.769C84.303 5.487 84.633 5.274 85.017 5.13C85.401 4.986 85.833 4.914 86.313 4.914C86.721 4.914 87.099 4.974 87.447 5.094L87.411 5.895C87.405 6.015 87.354 6.087 87.258 6.111C87.162 6.135 87.027 6.147 86.853 6.147H86.574C86.298 6.147 86.046 6.183 85.818 6.255C85.596 6.327 85.404 6.444 85.242 6.606C85.08 6.768 84.954 6.981 84.864 7.245C84.78 7.509 84.738 7.836 84.738 8.226V9.063H87.375V10.224H84.792V18H83.181ZM98.3059 10.386C98.2339 10.518 98.1229 10.584 97.9729 10.584C97.8829 10.584 97.7809 10.551 97.6669 10.485C97.5529 10.419 97.4119 10.347 97.2439 10.269C97.0819 10.185 96.8869 10.11 96.6589 10.044C96.4309 9.972 96.1609 9.936 95.8489 9.936C95.5789 9.936 95.3359 9.972 95.1199 10.044C94.9039 10.11 94.7179 10.203 94.5619 10.323C94.4119 10.443 94.2949 10.584 94.2109 10.746C94.1329 10.902 94.0939 11.073 94.0939 11.259C94.0939 11.493 94.1599 11.688 94.2919 11.844C94.4299 12 94.6099 12.135 94.8319 12.249C95.0539 12.363 95.3059 12.465 95.5879 12.555C95.8699 12.639 96.1579 12.732 96.4519 12.834C96.7519 12.93 97.0429 13.038 97.3249 13.158C97.6069 13.278 97.8589 13.428 98.0809 13.608C98.3029 13.788 98.4799 14.01 98.6119 14.274C98.7499 14.532 98.8189 14.844 98.8189 15.21C98.8189 15.63 98.7439 16.02 98.5939 16.38C98.4439 16.734 98.2219 17.043 97.9279 17.307C97.6339 17.565 97.2739 17.769 96.8479 17.919C96.4219 18.069 95.9299 18.144 95.3719 18.144C94.7359 18.144 94.1599 18.042 93.6439 17.838C93.1279 17.628 92.6899 17.361 92.3299 17.037L92.7079 16.425C92.7559 16.347 92.8129 16.287 92.8789 16.245C92.9449 16.203 93.0319 16.182 93.1399 16.182C93.2479 16.182 93.3619 16.224 93.4819 16.308C93.6019 16.392 93.7459 16.485 93.9139 16.587C94.0879 16.689 94.2949 16.782 94.5349 16.866C94.7809 16.95 95.0869 16.992 95.4529 16.992C95.7649 16.992 96.0379 16.953 96.2719 16.875C96.5059 16.791 96.7009 16.68 96.8569 16.542C97.0129 16.404 97.1269 16.245 97.1989 16.065C97.2769 15.885 97.3159 15.693 97.3159 15.489C97.3159 15.237 97.2469 15.03 97.1089 14.868C96.9769 14.7 96.7999 14.559 96.5779 14.445C96.3559 14.325 96.1009 14.223 95.8129 14.139C95.5309 14.049 95.2399 13.956 94.9399 13.86C94.6459 13.764 94.3549 13.656 94.0669 13.536C93.7849 13.41 93.5329 13.254 93.3109 13.068C93.0889 12.882 92.9089 12.654 92.7709 12.384C92.6389 12.108 92.5729 11.775 92.5729 11.385C92.5729 11.037 92.6449 10.704 92.7889 10.386C92.9329 10.062 93.1429 9.78 93.4189 9.54C93.6949 9.294 94.0339 9.099 94.4359 8.955C94.8379 8.811 95.2969 8.739 95.8129 8.739C96.4129 8.739 96.9499 8.835 97.4239 9.027C97.9039 9.213 98.3179 9.471 98.6659 9.801L98.3059 10.386ZM103.033 4.743V18H101.431V4.743H103.033ZM107.998 8.883V18H106.396V8.883H107.998ZM108.358 6.021C108.358 6.177 108.325 6.324 108.259 6.462C108.199 6.594 108.115 6.714 108.007 6.822C107.905 6.924 107.785 7.005 107.647 7.065C107.509 7.125 107.362 7.155 107.206 7.155C107.05 7.155 106.903 7.125 106.765 7.065C106.633 7.005 106.513 6.924 106.405 6.822C106.303 6.714 106.222 6.594 106.162 6.462C106.102 6.324 106.072 6.177 106.072 6.021C106.072 5.865 106.102 5.718 106.162 5.58C106.222 5.436 106.303 5.313 106.405 5.211C106.513 5.103 106.633 5.019 106.765 4.959C106.903 4.899 107.05 4.869 107.206 4.869C107.362 4.869 107.509 4.899 107.647 4.959C107.785 5.019 107.905 5.103 108.007 5.211C108.115 5.313 108.199 5.436 108.259 5.58C108.325 5.718 108.358 5.865 108.358 6.021ZM117.599 18C117.371 18 117.227 17.889 117.167 17.667L117.023 16.56C116.633 17.034 116.186 17.415 115.682 17.703C115.184 17.985 114.611 18.126 113.963 18.126C113.441 18.126 112.967 18.027 112.541 17.829C112.115 17.625 111.752 17.328 111.452 16.938C111.152 16.548 110.921 16.062 110.759 15.48C110.597 14.898 110.516 14.229 110.516 13.473C110.516 12.801 110.606 12.177 110.786 11.601C110.966 11.019 111.224 10.515 111.56 10.089C111.902 9.663 112.316 9.33 112.802 9.09C113.288 8.844 113.84 8.721 114.458 8.721C115.016 8.721 115.493 8.817 115.889 9.009C116.285 9.195 116.639 9.459 116.951 9.801V4.743H118.553V18H117.599ZM114.494 16.83C115.016 16.83 115.472 16.71 115.862 16.47C116.258 16.23 116.621 15.891 116.951 15.453V11.043C116.657 10.647 116.333 10.371 115.979 10.215C115.631 10.053 115.244 9.972 114.818 9.972C113.966 9.972 113.312 10.275 112.856 10.881C112.4 11.487 112.172 12.351 112.172 13.473C112.172 14.067 112.223 14.577 112.325 15.003C112.427 15.423 112.577 15.771 112.775 16.047C112.973 16.317 113.216 16.515 113.504 16.641C113.792 16.767 114.122 16.83 114.494 16.83ZM125.205 8.739C125.751 8.739 126.255 8.832 126.717 9.018C127.179 9.198 127.578 9.462 127.914 9.81C128.25 10.152 128.511 10.578 128.697 11.088C128.889 11.592 128.985 12.168 128.985 12.816C128.985 13.068 128.958 13.236 128.904 13.32C128.85 13.404 128.748 13.446 128.598 13.446H122.532C122.544 14.022 122.622 14.523 122.766 14.949C122.91 15.375 123.108 15.732 123.36 16.02C123.612 16.302 123.912 16.515 124.26 16.659C124.608 16.797 124.998 16.866 125.43 16.866C125.832 16.866 126.177 16.821 126.465 16.731C126.759 16.635 127.011 16.533 127.221 16.425C127.431 16.317 127.605 16.218 127.743 16.128C127.887 16.032 128.01 15.984 128.112 15.984C128.244 15.984 128.346 16.035 128.418 16.137L128.868 16.722C128.67 16.962 128.433 17.172 128.157 17.352C127.881 17.526 127.584 17.67 127.266 17.784C126.954 17.898 126.63 17.982 126.294 18.036C125.958 18.096 125.625 18.126 125.295 18.126C124.665 18.126 124.083 18.021 123.549 17.811C123.021 17.595 122.562 17.283 122.172 16.875C121.788 16.461 121.488 15.951 121.272 15.345C121.056 14.739 120.948 14.043 120.948 13.257C120.948 12.621 121.044 12.027 121.236 11.475C121.434 10.923 121.716 10.446 122.082 10.044C122.448 9.636 122.895 9.318 123.423 9.09C123.951 8.856 124.545 8.739 125.205 8.739ZM125.241 9.918C124.467 9.918 123.858 10.143 123.414 10.593C122.97 11.037 122.694 11.655 122.586 12.447H127.545C127.545 12.075 127.494 11.736 127.392 11.43C127.29 11.118 127.14 10.851 126.942 10.629C126.744 10.401 126.501 10.227 126.213 10.107C125.931 9.981 125.607 9.918 125.241 9.918Z" fill="#2B2C43"/>
</svg>
